<?xml version="1.0" standalone="no"?>
<!DOCTYPE svg PUBLIC "-//W3C//DTD SVG 20010904//EN"
 "http://www.w3.org/TR/2001/REC-SVG-20010904/DTD/svg10.dtd">
<svg version="1.0" xmlns="http://www.w3.org/2000/svg"
 width="512.000000pt" height="512.000000pt" viewBox="0 0 512.000000 512.000000"
 preserveAspectRatio="xMidYMid meet">
<metadata>
Created by potrace 1.11, written by Peter Selinger 2001-2013
</metadata>
<g transform="translate(0.000000,512.000000) scale(0.100000,-0.100000)"
fill="#000000" stroke="none">
<path d="M415 5110 c-183 -38 -330 -170 -391 -350 -18 -53 -19 -134 -19 -2200
0 -2066 1 -2147 19 -2200 52 -154 168 -274 322 -332 l59 -23 2155 0 2155 0 59
23 c154 58 270 178 322 332 18 53 19 134 19 2200 0 2066 -1 2147 -19 2200 -52
154 -168 274 -322 332 l-59 23 -2130 1 c-1172 1 -2148 -2 -2170 -6z m2283
-952 l2 -167 58 -6 c73 -8 231 -47 304 -75 228 -86 430 -337 473 -588 l7 -42
-171 0 -170 0 -12 43 c-19 75 -70 156 -133 214 -80 74 -172 116 -310 142 l-46
8 0 -472 0 -473 197 -66 c316 -107 468 -189 590 -320 184 -197 215 -529 71
-774 -46 -79 -198 -228 -283 -279 -134 -78 -318 -136 -485 -150 l-85 -8 -3
-177 -2 -178 -135 0 -135 0 0 179 0 178 -62 7 c-87 9 -256 52 -339 86 -219 89
-386 233 -469 405 -49 101 -69 176 -77 288 l-6 87 169 -2 169 -3 7 -70 c14
-159 83 -277 212 -362 80 -53 214 -97 333 -109 l63 -7 0 516 0 515 -107 38
c-268 93 -378 143 -510 230 -194 129 -272 291 -260 543 6 131 22 189 81 295
40 72 128 166 203 217 125 86 346 154 558 172 l30 2 3 168 2 168 133 -3 132
-3 3 -167z"/>
<path d="M2341 3679 c-187 -36 -327 -133 -389 -266 -22 -49 -27 -72 -27 -148
0 -122 22 -183 89 -250 28 -27 75 -63 104 -78 48 -26 285 -117 304 -117 4 0 8
196 8 435 l0 435 -22 -1 c-13 -1 -43 -5 -67 -10z"/>
<path d="M2700 1945 c0 -382 3 -485 13 -485 84 3 262 57 333 103 61 39 152
141 182 204 24 51 27 70 27 163 0 99 -2 110 -33 172 -40 82 -127 165 -220 212
-37 18 -120 52 -184 74 l-118 42 0 -485z"/>
</g>
</svg>
